<svg width="77" height="82" viewBox="0 0 77 82" fill="none" xmlns="http://www.w3.org/2000/svg">
<path d="M44.2552 37.9198H9.64073C8.29831 37.9198 7.32684 36.6383 7.68952 35.3458L17.1925 1.47906C17.4379 0.604459 18.2353 0 19.1437 0H53.7582C55.1006 0 56.0721 1.28158 55.7094 2.57408L46.2064 36.4408C45.961 37.3154 45.1636 37.9198 44.2552 37.9198ZM21.7726 63.4836L26.6656 46.0459C27.0283 44.7534 26.0568 43.4718 24.7144 43.4718H6.92075C6.01237 43.4718 5.21496 44.0763 4.96954 44.9509L0.0765587 62.3885C-0.286115 63.681 0.68535 64.9626 2.02777 64.9626H19.8214C20.7298 64.9626 21.5272 64.3582 21.7726 63.4836ZM30.7768 44.9509L21.2739 78.8176C20.9112 80.1101 21.8826 81.3917 23.2251 81.3917H57.8396C58.748 81.3917 59.5454 80.7872 59.7908 79.9126L69.2937 46.0459C69.6564 44.7534 68.685 43.4718 67.3425 43.4718H32.728C31.8196 43.4718 31.0222 44.0763 30.7768 44.9509ZM55.2107 17.9081L50.3177 35.3458C49.955 36.6383 50.9265 37.9198 52.2689 37.9198H70.0625C70.9709 37.9198 71.7683 37.3154 72.0137 36.4408L76.9067 19.0031C77.2694 17.7106 76.2979 16.4291 74.9555 16.4291H57.1619C56.2535 16.4291 55.4561 17.0335 55.2107 17.9081Z" fill="url(#paint0_linear_10_2)"/>
<defs>
<linearGradient id="paint0_linear_10_2" x1="22.2191" y1="1.04995" x2="52.7988" y2="75.5535" gradientUnits="userSpaceOnUse">
<stop stop-color="white"/>
<stop offset="0.964" stop-color="white"/>
</linearGradient>
</defs>
</svg>
